<mxfile host="app.diagrams.net" modified="2022-03-17T07:21:04.172Z" agent="5.0 (Windows NT 10.0; Win64; x64) AppleWebKit/537.36 (KHTML, like Gecko) Chrome/96.0.4664.45 Safari/537.36" etag="dH6G5Vju0BZBxKYInY0V" version="16.5.6" type="github">
  <diagram id="Mu7yk8GuiVk8Gk-UCI4_" name="第 1 页">
    <mxGraphModel dx="2249" dy="1875" grid="1" gridSize="10" guides="1" tooltips="1" connect="1" arrows="1" fold="1" page="1" pageScale="1" pageWidth="827" pageHeight="1169" math="0" shadow="0">
      <root>
        <mxCell id="0" />
        <mxCell id="1" parent="0" />
        <mxCell id="oV9n_YVSXL_IAB9L3_i6-15" style="edgeStyle=orthogonalEdgeStyle;rounded=0;orthogonalLoop=1;jettySize=auto;html=1;entryX=0;entryY=0.5;entryDx=0;entryDy=0;fontSize=18;" edge="1" parent="1" source="oV9n_YVSXL_IAB9L3_i6-1" target="oV9n_YVSXL_IAB9L3_i6-5">
          <mxGeometry relative="1" as="geometry" />
        </mxCell>
        <mxCell id="oV9n_YVSXL_IAB9L3_i6-16" value="移架" style="edgeLabel;html=1;align=center;verticalAlign=middle;resizable=0;points=[];fontSize=18;" vertex="1" connectable="0" parent="oV9n_YVSXL_IAB9L3_i6-15">
          <mxGeometry x="-0.25" relative="1" as="geometry">
            <mxPoint as="offset" />
          </mxGeometry>
        </mxCell>
        <mxCell id="oV9n_YVSXL_IAB9L3_i6-1" value="待检区" style="rounded=0;whiteSpace=wrap;html=1;fontSize=18;" vertex="1" parent="1">
          <mxGeometry x="60" y="100" width="120" height="60" as="geometry" />
        </mxCell>
        <mxCell id="oV9n_YVSXL_IAB9L3_i6-12" style="edgeStyle=orthogonalEdgeStyle;rounded=0;orthogonalLoop=1;jettySize=auto;html=1;entryX=0.5;entryY=0;entryDx=0;entryDy=0;fontSize=18;" edge="1" parent="1" source="oV9n_YVSXL_IAB9L3_i6-2" target="oV9n_YVSXL_IAB9L3_i6-4">
          <mxGeometry relative="1" as="geometry" />
        </mxCell>
        <mxCell id="oV9n_YVSXL_IAB9L3_i6-2" value="拣货篮子" style="rounded=0;whiteSpace=wrap;html=1;fontSize=18;" vertex="1" parent="1">
          <mxGeometry x="340" y="410" width="120" height="60" as="geometry" />
        </mxCell>
        <mxCell id="oV9n_YVSXL_IAB9L3_i6-27" style="edgeStyle=orthogonalEdgeStyle;rounded=0;orthogonalLoop=1;jettySize=auto;html=1;entryX=1;entryY=0.5;entryDx=0;entryDy=0;fontSize=18;" edge="1" parent="1" source="oV9n_YVSXL_IAB9L3_i6-3" target="oV9n_YVSXL_IAB9L3_i6-2">
          <mxGeometry relative="1" as="geometry">
            <Array as="points">
              <mxPoint x="600" y="440" />
            </Array>
          </mxGeometry>
        </mxCell>
        <mxCell id="oV9n_YVSXL_IAB9L3_i6-28" value="分拣" style="edgeLabel;html=1;align=center;verticalAlign=middle;resizable=0;points=[];fontSize=18;" vertex="1" connectable="0" parent="oV9n_YVSXL_IAB9L3_i6-27">
          <mxGeometry x="-0.3524" y="-1" relative="1" as="geometry">
            <mxPoint as="offset" />
          </mxGeometry>
        </mxCell>
        <mxCell id="oV9n_YVSXL_IAB9L3_i6-3" value="总拣车" style="rounded=0;whiteSpace=wrap;html=1;fontSize=18;" vertex="1" parent="1">
          <mxGeometry x="530" y="260" width="120" height="60" as="geometry" />
        </mxCell>
        <mxCell id="oV9n_YVSXL_IAB9L3_i6-18" value="" style="edgeStyle=orthogonalEdgeStyle;rounded=0;orthogonalLoop=1;jettySize=auto;html=1;fontSize=18;" edge="1" parent="1" source="oV9n_YVSXL_IAB9L3_i6-4" target="oV9n_YVSXL_IAB9L3_i6-17">
          <mxGeometry relative="1" as="geometry" />
        </mxCell>
        <mxCell id="oV9n_YVSXL_IAB9L3_i6-4" value="打包台" style="rounded=0;whiteSpace=wrap;html=1;fontSize=18;" vertex="1" parent="1">
          <mxGeometry x="340" y="550" width="120" height="60" as="geometry" />
        </mxCell>
        <mxCell id="oV9n_YVSXL_IAB9L3_i6-9" value="" style="edgeStyle=orthogonalEdgeStyle;rounded=0;orthogonalLoop=1;jettySize=auto;html=1;fontSize=18;" edge="1" parent="1" source="oV9n_YVSXL_IAB9L3_i6-5" target="oV9n_YVSXL_IAB9L3_i6-8">
          <mxGeometry relative="1" as="geometry" />
        </mxCell>
        <mxCell id="oV9n_YVSXL_IAB9L3_i6-24" value="订单拣货" style="edgeLabel;html=1;align=center;verticalAlign=middle;resizable=0;points=[];fontSize=18;" vertex="1" connectable="0" parent="oV9n_YVSXL_IAB9L3_i6-9">
          <mxGeometry x="-0.3091" y="2" relative="1" as="geometry">
            <mxPoint x="-2" y="9" as="offset" />
          </mxGeometry>
        </mxCell>
        <mxCell id="oV9n_YVSXL_IAB9L3_i6-13" style="edgeStyle=orthogonalEdgeStyle;rounded=0;orthogonalLoop=1;jettySize=auto;html=1;fontSize=18;" edge="1" parent="1" source="oV9n_YVSXL_IAB9L3_i6-5" target="oV9n_YVSXL_IAB9L3_i6-7">
          <mxGeometry relative="1" as="geometry" />
        </mxCell>
        <mxCell id="oV9n_YVSXL_IAB9L3_i6-14" value="移架" style="edgeLabel;html=1;align=center;verticalAlign=middle;resizable=0;points=[];fontSize=18;" vertex="1" connectable="0" parent="oV9n_YVSXL_IAB9L3_i6-13">
          <mxGeometry x="0.125" relative="1" as="geometry">
            <mxPoint as="offset" />
          </mxGeometry>
        </mxCell>
        <mxCell id="oV9n_YVSXL_IAB9L3_i6-5" value="普通货架" style="rounded=0;whiteSpace=wrap;html=1;fontSize=18;" vertex="1" parent="1">
          <mxGeometry x="340" y="100" width="120" height="60" as="geometry" />
        </mxCell>
        <mxCell id="oV9n_YVSXL_IAB9L3_i6-6" value="冷藏柜" style="rounded=0;whiteSpace=wrap;html=1;fontSize=18;" vertex="1" parent="1">
          <mxGeometry x="474" y="100" width="120" height="60" as="geometry" />
        </mxCell>
        <mxCell id="oV9n_YVSXL_IAB9L3_i6-26" value="" style="edgeStyle=orthogonalEdgeStyle;rounded=0;orthogonalLoop=1;jettySize=auto;html=1;fontSize=18;" edge="1" parent="1" source="oV9n_YVSXL_IAB9L3_i6-7" target="oV9n_YVSXL_IAB9L3_i6-25">
          <mxGeometry relative="1" as="geometry" />
        </mxCell>
        <mxCell id="oV9n_YVSXL_IAB9L3_i6-7" value="组装区" style="rounded=0;whiteSpace=wrap;html=1;fontSize=18;" vertex="1" parent="1">
          <mxGeometry x="340" y="-120" width="120" height="60" as="geometry" />
        </mxCell>
        <mxCell id="oV9n_YVSXL_IAB9L3_i6-10" style="edgeStyle=orthogonalEdgeStyle;rounded=0;orthogonalLoop=1;jettySize=auto;html=1;entryX=0.5;entryY=0;entryDx=0;entryDy=0;fontSize=18;" edge="1" parent="1" source="oV9n_YVSXL_IAB9L3_i6-8" target="oV9n_YVSXL_IAB9L3_i6-2">
          <mxGeometry relative="1" as="geometry">
            <Array as="points">
              <mxPoint x="400" y="370" />
              <mxPoint x="400" y="370" />
            </Array>
          </mxGeometry>
        </mxCell>
        <mxCell id="oV9n_YVSXL_IAB9L3_i6-30" value="直接分拣" style="edgeLabel;html=1;align=center;verticalAlign=middle;resizable=0;points=[];fontSize=18;" vertex="1" connectable="0" parent="oV9n_YVSXL_IAB9L3_i6-10">
          <mxGeometry x="-0.25" y="-1" relative="1" as="geometry">
            <mxPoint x="1" as="offset" />
          </mxGeometry>
        </mxCell>
        <mxCell id="oV9n_YVSXL_IAB9L3_i6-11" style="edgeStyle=orthogonalEdgeStyle;rounded=0;orthogonalLoop=1;jettySize=auto;html=1;entryX=0;entryY=0.5;entryDx=0;entryDy=0;fontSize=18;" edge="1" parent="1" source="oV9n_YVSXL_IAB9L3_i6-8" target="oV9n_YVSXL_IAB9L3_i6-3">
          <mxGeometry relative="1" as="geometry" />
        </mxCell>
        <mxCell id="oV9n_YVSXL_IAB9L3_i6-29" value="是" style="edgeLabel;html=1;align=center;verticalAlign=middle;resizable=0;points=[];fontSize=18;" vertex="1" connectable="0" parent="oV9n_YVSXL_IAB9L3_i6-11">
          <mxGeometry x="-0.2444" relative="1" as="geometry">
            <mxPoint as="offset" />
          </mxGeometry>
        </mxCell>
        <mxCell id="oV9n_YVSXL_IAB9L3_i6-8" value="是否总拣" style="rhombus;whiteSpace=wrap;html=1;rounded=0;fontSize=18;" vertex="1" parent="1">
          <mxGeometry x="360" y="250" width="80" height="80" as="geometry" />
        </mxCell>
        <mxCell id="oV9n_YVSXL_IAB9L3_i6-17" value="出库" style="whiteSpace=wrap;html=1;rounded=0;fontSize=18;" vertex="1" parent="1">
          <mxGeometry x="340" y="690" width="120" height="60" as="geometry" />
        </mxCell>
        <mxCell id="oV9n_YVSXL_IAB9L3_i6-22" style="edgeStyle=orthogonalEdgeStyle;rounded=0;orthogonalLoop=1;jettySize=auto;html=1;fontSize=18;" edge="1" parent="1" target="oV9n_YVSXL_IAB9L3_i6-1">
          <mxGeometry relative="1" as="geometry">
            <mxPoint x="-150" y="130" as="sourcePoint" />
          </mxGeometry>
        </mxCell>
        <mxCell id="oV9n_YVSXL_IAB9L3_i6-23" value="采购入库、销售退货" style="edgeLabel;html=1;align=center;verticalAlign=middle;resizable=0;points=[];fontSize=18;" vertex="1" connectable="0" parent="oV9n_YVSXL_IAB9L3_i6-22">
          <mxGeometry x="-0.1524" relative="1" as="geometry">
            <mxPoint as="offset" />
          </mxGeometry>
        </mxCell>
        <mxCell id="oV9n_YVSXL_IAB9L3_i6-25" value="进行组装、拆卸" style="whiteSpace=wrap;html=1;rounded=0;fontSize=18;" vertex="1" parent="1">
          <mxGeometry x="330" y="-260" width="140" height="60" as="geometry" />
        </mxCell>
        <mxCell id="oV9n_YVSXL_IAB9L3_i6-36" style="edgeStyle=orthogonalEdgeStyle;rounded=0;orthogonalLoop=1;jettySize=auto;html=1;entryX=0;entryY=0.5;entryDx=0;entryDy=0;fontSize=18;" edge="1" parent="1" source="oV9n_YVSXL_IAB9L3_i6-33" target="oV9n_YVSXL_IAB9L3_i6-34">
          <mxGeometry relative="1" as="geometry" />
        </mxCell>
        <mxCell id="oV9n_YVSXL_IAB9L3_i6-37" value="mq同步数据" style="edgeLabel;html=1;align=center;verticalAlign=middle;resizable=0;points=[];fontSize=18;" vertex="1" connectable="0" parent="oV9n_YVSXL_IAB9L3_i6-36">
          <mxGeometry x="-0.125" y="2" relative="1" as="geometry">
            <mxPoint as="offset" />
          </mxGeometry>
        </mxCell>
        <mxCell id="oV9n_YVSXL_IAB9L3_i6-38" style="edgeStyle=orthogonalEdgeStyle;rounded=0;orthogonalLoop=1;jettySize=auto;html=1;entryX=0;entryY=0.5;entryDx=0;entryDy=0;fontSize=18;" edge="1" parent="1" source="oV9n_YVSXL_IAB9L3_i6-33" target="oV9n_YVSXL_IAB9L3_i6-35">
          <mxGeometry relative="1" as="geometry">
            <Array as="points">
              <mxPoint x="-520" y="1111" />
            </Array>
          </mxGeometry>
        </mxCell>
        <mxCell id="oV9n_YVSXL_IAB9L3_i6-39" value="调用cbt的http接口" style="edgeLabel;html=1;align=center;verticalAlign=middle;resizable=0;points=[];fontSize=18;" vertex="1" connectable="0" parent="oV9n_YVSXL_IAB9L3_i6-38">
          <mxGeometry x="-0.6706" y="-3" relative="1" as="geometry">
            <mxPoint x="3" y="24" as="offset" />
          </mxGeometry>
        </mxCell>
        <mxCell id="oV9n_YVSXL_IAB9L3_i6-33" value="商品服务" style="rounded=0;whiteSpace=wrap;html=1;fontSize=18;" vertex="1" parent="1">
          <mxGeometry x="-580" y="901" width="120" height="60" as="geometry" />
        </mxCell>
        <mxCell id="oV9n_YVSXL_IAB9L3_i6-40" style="edgeStyle=orthogonalEdgeStyle;rounded=0;orthogonalLoop=1;jettySize=auto;html=1;entryX=0.5;entryY=0;entryDx=0;entryDy=0;fontSize=18;" edge="1" parent="1" source="oV9n_YVSXL_IAB9L3_i6-34" target="oV9n_YVSXL_IAB9L3_i6-33">
          <mxGeometry relative="1" as="geometry">
            <Array as="points">
              <mxPoint x="-80" y="851" />
              <mxPoint x="-520" y="851" />
            </Array>
          </mxGeometry>
        </mxCell>
        <mxCell id="oV9n_YVSXL_IAB9L3_i6-41" value="返回erp_product_id" style="edgeLabel;html=1;align=center;verticalAlign=middle;resizable=0;points=[];fontSize=18;" vertex="1" connectable="0" parent="oV9n_YVSXL_IAB9L3_i6-40">
          <mxGeometry x="-0.1111" y="-1" relative="1" as="geometry">
            <mxPoint as="offset" />
          </mxGeometry>
        </mxCell>
        <mxCell id="oV9n_YVSXL_IAB9L3_i6-34" value="ERP" style="rounded=0;whiteSpace=wrap;html=1;fontSize=18;" vertex="1" parent="1">
          <mxGeometry x="-160" y="901" width="120" height="60" as="geometry" />
        </mxCell>
        <mxCell id="oV9n_YVSXL_IAB9L3_i6-35" value="茶城" style="rounded=0;whiteSpace=wrap;html=1;fontSize=18;" vertex="1" parent="1">
          <mxGeometry x="-350" y="1081" width="120" height="60" as="geometry" />
        </mxCell>
        <mxCell id="oV9n_YVSXL_IAB9L3_i6-54" value="" style="edgeStyle=orthogonalEdgeStyle;rounded=0;orthogonalLoop=1;jettySize=auto;html=1;fontSize=18;" edge="1" parent="1" source="oV9n_YVSXL_IAB9L3_i6-42" target="oV9n_YVSXL_IAB9L3_i6-53">
          <mxGeometry relative="1" as="geometry" />
        </mxCell>
        <mxCell id="oV9n_YVSXL_IAB9L3_i6-42" value="领料单" style="rounded=0;whiteSpace=wrap;html=1;fontSize=18;" vertex="1" parent="1">
          <mxGeometry x="10" y="1380" width="120" height="540" as="geometry" />
        </mxCell>
        <mxCell id="oV9n_YVSXL_IAB9L3_i6-48" style="edgeStyle=orthogonalEdgeStyle;rounded=0;orthogonalLoop=1;jettySize=auto;html=1;entryX=0;entryY=0.5;entryDx=0;entryDy=0;fontSize=18;" edge="1" parent="1" source="oV9n_YVSXL_IAB9L3_i6-43" target="oV9n_YVSXL_IAB9L3_i6-42">
          <mxGeometry relative="1" as="geometry" />
        </mxCell>
        <mxCell id="oV9n_YVSXL_IAB9L3_i6-43" value="调拨单" style="rounded=0;whiteSpace=wrap;html=1;fontSize=18;" vertex="1" parent="1">
          <mxGeometry x="-450" y="1360" width="120" height="60" as="geometry" />
        </mxCell>
        <mxCell id="oV9n_YVSXL_IAB9L3_i6-49" style="edgeStyle=orthogonalEdgeStyle;rounded=0;orthogonalLoop=1;jettySize=auto;html=1;entryX=0;entryY=0.5;entryDx=0;entryDy=0;fontSize=18;" edge="1" parent="1" source="oV9n_YVSXL_IAB9L3_i6-44" target="oV9n_YVSXL_IAB9L3_i6-42">
          <mxGeometry relative="1" as="geometry" />
        </mxCell>
        <mxCell id="oV9n_YVSXL_IAB9L3_i6-44" value="组装领用" style="rounded=0;whiteSpace=wrap;html=1;fontSize=18;" vertex="1" parent="1">
          <mxGeometry x="-450" y="1500" width="120" height="60" as="geometry" />
        </mxCell>
        <mxCell id="oV9n_YVSXL_IAB9L3_i6-50" style="edgeStyle=orthogonalEdgeStyle;rounded=0;orthogonalLoop=1;jettySize=auto;html=1;entryX=0;entryY=0.5;entryDx=0;entryDy=0;fontSize=18;" edge="1" parent="1" source="oV9n_YVSXL_IAB9L3_i6-45" target="oV9n_YVSXL_IAB9L3_i6-42">
          <mxGeometry relative="1" as="geometry" />
        </mxCell>
        <mxCell id="oV9n_YVSXL_IAB9L3_i6-45" value="组装补料" style="rounded=0;whiteSpace=wrap;html=1;fontSize=18;" vertex="1" parent="1">
          <mxGeometry x="-450" y="1620" width="120" height="60" as="geometry" />
        </mxCell>
        <mxCell id="oV9n_YVSXL_IAB9L3_i6-51" style="edgeStyle=orthogonalEdgeStyle;rounded=0;orthogonalLoop=1;jettySize=auto;html=1;entryX=0;entryY=0.5;entryDx=0;entryDy=0;fontSize=18;" edge="1" parent="1" source="oV9n_YVSXL_IAB9L3_i6-46" target="oV9n_YVSXL_IAB9L3_i6-42">
          <mxGeometry relative="1" as="geometry" />
        </mxCell>
        <mxCell id="oV9n_YVSXL_IAB9L3_i6-46" value="组装退料" style="rounded=0;whiteSpace=wrap;html=1;fontSize=18;" vertex="1" parent="1">
          <mxGeometry x="-450" y="1740" width="120" height="60" as="geometry" />
        </mxCell>
        <mxCell id="oV9n_YVSXL_IAB9L3_i6-52" style="edgeStyle=orthogonalEdgeStyle;rounded=0;orthogonalLoop=1;jettySize=auto;html=1;entryX=0;entryY=0.5;entryDx=0;entryDy=0;fontSize=18;" edge="1" parent="1" source="oV9n_YVSXL_IAB9L3_i6-47" target="oV9n_YVSXL_IAB9L3_i6-42">
          <mxGeometry relative="1" as="geometry" />
        </mxCell>
        <mxCell id="oV9n_YVSXL_IAB9L3_i6-47" value="领用单" style="rounded=0;whiteSpace=wrap;html=1;fontSize=18;" vertex="1" parent="1">
          <mxGeometry x="-450" y="1890" width="120" height="60" as="geometry" />
        </mxCell>
        <mxCell id="oV9n_YVSXL_IAB9L3_i6-56" value="" style="edgeStyle=orthogonalEdgeStyle;rounded=0;orthogonalLoop=1;jettySize=auto;html=1;fontSize=18;" edge="1" parent="1" source="oV9n_YVSXL_IAB9L3_i6-53" target="oV9n_YVSXL_IAB9L3_i6-55">
          <mxGeometry relative="1" as="geometry" />
        </mxCell>
        <mxCell id="oV9n_YVSXL_IAB9L3_i6-53" value="从普通货架、冷藏柜领取" style="whiteSpace=wrap;html=1;fontSize=18;rounded=0;" vertex="1" parent="1">
          <mxGeometry x="210" y="1620" width="240" height="60" as="geometry" />
        </mxCell>
        <mxCell id="oV9n_YVSXL_IAB9L3_i6-58" style="edgeStyle=orthogonalEdgeStyle;rounded=0;orthogonalLoop=1;jettySize=auto;html=1;entryX=0;entryY=0.5;entryDx=0;entryDy=0;fontSize=18;" edge="1" parent="1" source="oV9n_YVSXL_IAB9L3_i6-55" target="oV9n_YVSXL_IAB9L3_i6-57">
          <mxGeometry relative="1" as="geometry" />
        </mxCell>
        <mxCell id="oV9n_YVSXL_IAB9L3_i6-55" value="放置到对应的位置" style="whiteSpace=wrap;html=1;fontSize=18;rounded=0;" vertex="1" parent="1">
          <mxGeometry x="590" y="1620" width="160" height="60" as="geometry" />
        </mxCell>
        <mxCell id="oV9n_YVSXL_IAB9L3_i6-57" value="" style="rounded=0;whiteSpace=wrap;html=1;fontSize=18;" vertex="1" parent="1">
          <mxGeometry x="880" y="1380" width="360" height="540" as="geometry" />
        </mxCell>
        <mxCell id="oV9n_YVSXL_IAB9L3_i6-59" value="领用单放置到打包台，出库" style="rounded=0;whiteSpace=wrap;html=1;fontSize=18;" vertex="1" parent="1">
          <mxGeometry x="920" y="1840" width="270" height="60" as="geometry" />
        </mxCell>
        <mxCell id="oV9n_YVSXL_IAB9L3_i6-60" value="调拨单放置到打包台，出库" style="rounded=0;whiteSpace=wrap;html=1;fontSize=18;" vertex="1" parent="1">
          <mxGeometry x="930" y="1400" width="250" height="60" as="geometry" />
        </mxCell>
        <mxCell id="oV9n_YVSXL_IAB9L3_i6-61" value="组装领用、补料放置到组装区" style="rounded=0;whiteSpace=wrap;html=1;fontSize=18;" vertex="1" parent="1">
          <mxGeometry x="930" y="1510" width="250" height="60" as="geometry" />
        </mxCell>
        <mxCell id="oV9n_YVSXL_IAB9L3_i6-62" value="组装退料由组装区回退到货架" style="rounded=0;whiteSpace=wrap;html=1;fontSize=18;" vertex="1" parent="1">
          <mxGeometry x="930" y="1620" width="260" height="60" as="geometry" />
        </mxCell>
      </root>
    </mxGraphModel>
  </diagram>
</mxfile>
